<svg width="61" height="63" viewBox="0 0 61 63" fill="none" xmlns="http://www.w3.org/2000/svg">
<g clip-path="url(#clip0)">
<path d="M13.6772 28.6776C13.6772 29.1237 13 29.1237 13 28.6776C13 19.1926 20.6926 11.5 30.1776 11.5C39.6667 11.5 47.3552 19.1926 47.3552 28.6776C47.3552 29.1237 46.6821 29.1237 46.6821 28.6776C46.6821 22.2664 36.1468 22.2624 36.1468 28.6776C36.1468 29.1237 35.4534 29.1237 35.4534 28.6776C35.4534 22.2826 24.9019 22.2826 24.9019 28.6776C24.9019 29.1237 24.2084 29.1237 24.2084 28.6776C24.2084 22.2948 13.6772 22.2502 13.6772 28.6776ZM24.2693 26.1878C24.4517 22.4976 25.0316 19.1886 25.8751 16.6622C26.5483 14.6549 27.3998 13.1302 28.365 12.2745C21.1225 13.0653 15.2587 18.556 13.9489 25.6768C16.4428 22.0799 22.2011 22.3678 24.2693 26.1878ZM35.4006 26.0215C35.2141 22.4732 34.6504 19.2981 33.8394 16.8771C31.747 10.6119 28.6083 10.6119 26.5158 16.8771C25.7048 19.2981 25.1452 22.4732 24.9546 26.0215C27.2052 22.1975 33.15 22.1975 35.4006 26.0215ZM46.4063 25.6768C45.1006 18.556 39.2368 13.0653 31.9903 12.2745C32.9594 13.1302 33.807 14.6549 34.4801 16.6622C35.3236 19.1886 35.9035 22.4976 36.086 26.1878C38.1663 22.3475 43.9408 22.1204 46.4063 25.6768Z" fill="#FF6B09"/>
<path d="M27.9234 36.5376V33.0494C27.2948 33.4671 26.8001 34.1121 26.8001 34.8989C26.8001 35.6655 27.3029 36.1725 27.9234 36.5376ZM28.6006 37.6205C27.3962 37.0689 26.127 36.424 26.127 34.8989C26.127 33.3252 27.3232 32.5383 28.6006 31.9502V37.6205Z" fill="#FF6B09"/>
<path d="M32.4319 41.8002V45.3281C33.0686 44.9064 33.5674 44.2576 33.5674 43.4709C33.5674 42.6963 33.0564 42.1732 32.4319 41.8002ZM31.7588 40.7134C32.9672 41.273 34.2446 41.938 34.2446 43.4709C34.2446 45.0483 33.0402 45.835 31.7588 46.419V40.7134Z" fill="#FF6B09"/>
<path d="M32.4318 29.0791C35.2055 29.7198 38.0563 31.7961 38.0563 34.8984C38.0563 37.5546 33.5673 37.4572 33.5673 34.8984C33.5673 34.1076 33.0685 33.4588 32.4318 33.0411V38.0047C34.9987 38.8441 38.0644 40.3486 38.0644 43.4712C38.0644 46.5775 35.2136 48.6497 32.4318 49.2864C32.4197 52.2427 27.9306 52.2386 27.9225 49.2824C26.341 48.9174 24.9663 48.1793 23.9728 47.202C22.9306 46.172 22.3142 44.8784 22.3142 43.4712C22.3142 40.8555 26.7992 40.8555 26.7992 43.4712C26.7992 44.2538 27.2939 44.8986 27.9225 45.3163V40.3568C25.3759 39.5335 22.2939 37.9844 22.2939 34.8903C22.2939 31.784 25.1447 29.7117 27.9225 29.075C27.9347 26.1188 32.4237 26.1228 32.4318 29.0791ZM28.5997 29.0872V29.6266C25.9598 30.1497 22.9671 31.8407 22.9671 34.8903C22.9671 37.8222 26.2518 39.1361 28.5997 39.862V46.4153C27.3304 45.8354 26.1261 45.0527 26.1261 43.4712C26.1261 41.7436 22.9874 41.7436 22.9874 43.4712C22.9874 44.6918 23.5308 45.8192 24.4472 46.7194C25.6111 47.8711 27.0222 48.4186 28.5997 48.7308V49.2742C28.5997 51.3546 31.7587 51.3546 31.7587 49.2742V48.7349C34.4067 48.2077 37.3872 46.5167 37.3872 43.4712C37.3872 40.5109 34.1106 39.2375 31.7587 38.4954V32.4693V31.9462C33.032 32.5261 34.2445 33.3087 34.2445 34.8984C34.2445 36.5813 37.3791 36.6503 37.3791 34.8984C37.3791 31.8529 34.4026 30.1578 31.7587 29.6306V29.0872C31.7587 27.0069 28.5997 27.0069 28.5997 29.0872Z" fill="#FF6B09"/>
</g>
<path d="M59.8235 9.73529V1.5H1V61.5H59.8235V53.2647" stroke="#FF6B09" stroke-width="2"/>
<defs>
<clipPath id="clip0">
<rect width="35" height="40" fill="white" transform="translate(13 11.5)"/>
</clipPath>
</defs>
</svg>
