<svg width="61" height="63" viewBox="0 0 61 63" fill="none" xmlns="http://www.w3.org/2000/svg">
<g clip-path="url(#clip0)">
<path d="M13.8721 51.1984C18.1733 51.1984 43.0568 51.1984 47.353 51.1984C47.5188 47.3803 47.2453 41.0454 44.8978 38.0302L44.8129 37.9219L39.6831 35.3463C39.7945 34.9706 39.8493 34.6264 39.8713 34.3735C39.8967 34.0698 39.8548 33.7846 39.7464 33.5262C38.9001 31.5011 37.1093 30.4356 36.1243 29.9815C36.4245 29.3767 36.618 28.7274 36.7115 28.064C37.2691 27.9069 37.7176 27.465 37.8646 26.8755L38.4634 24.443C38.5695 24.0139 38.5029 23.5688 38.2748 23.1903C38.1767 23.0272 38.0498 22.8898 37.9074 22.7723C39.5956 18.9377 36.7681 15.3219 36.6141 15.1316C33.5519 11.8208 29.6834 12.4399 29.4789 12.4765C23.8963 13.6455 21.7419 17.924 22.9582 22.9419C22.5979 23.341 22.4466 23.8971 22.5802 24.4424L23.1819 26.8776C23.3278 27.4628 23.7727 27.9031 24.3264 28.0621C24.4972 29.2769 25.0114 30.3758 25.7667 31.2613V33.1897C17.7555 37.2923 22.8316 34.6749 16.4116 37.9228C16.3989 37.9834 13.3991 41.1715 13.845 50.6211L13.8721 51.1984ZM46.1896 49.9863H40.6793V47.6716L44.3238 39.3285C46.1495 42.3588 46.2173 48.1448 46.1896 49.9863ZM38.6691 34.2705C38.4564 36.7132 37.1169 35.9748 36.2899 37.8568C35.6395 37.1416 35.4439 36.284 35.6187 35.366C35.9345 33.6804 34.9057 33.1797 35.1599 31.4086L35.1985 31.368V31.3624C35.2203 31.338 35.4232 31.0963 35.4819 31.02C37.662 31.9704 38.7116 33.7379 38.6691 34.2705ZM26.9737 32.3505C27.9857 33.0525 29.2074 33.4673 30.5215 33.4673C31.759 33.4673 32.9344 33.1072 33.9421 32.4441C34.0818 33.8365 34.626 34.1153 34.4329 35.1399C34.3967 35.3301 34.3771 35.5175 34.3655 35.7019L30.6128 39.9313L25.8157 34.523L26.9737 33.9183V32.3505H26.9737ZM25.465 27.1744V24.8295C25.465 23.966 25.465 20.5401 25.465 20.7093C26.049 19.6291 26.8452 18.8458 27.8347 18.3762C30.4848 19.8756 33.5352 22.1134 35.5809 24.3655C35.579 27.2336 35.589 27.2414 35.57 27.477L35.5687 27.492C35.409 30.0964 33.2676 32.2552 30.5215 32.2552C27.8518 32.2552 25.6353 30.1591 25.475 27.4662C25.4667 27.3697 25.465 27.273 25.465 27.1744ZM24.7177 35.1079L30.6128 41.7536L34.5706 37.293C34.6611 37.5534 34.788 37.7995 34.9331 38.0371L30.6128 43.4398L24.1705 35.3826L24.7177 35.1079ZM36.7879 26.199V24.3267C36.8409 24.2659 37.2909 23.75 37.2379 23.8108C37.2627 24.7588 37.3651 23.6399 36.7879 26.199ZM29.7023 13.6677C29.9417 13.6826 33.1587 13.1783 35.7012 15.9232C35.8013 16.0489 37.8709 18.7154 37.0394 21.6325C36.7549 20.3345 36.2588 18.6711 35.4749 17.8772L34.618 18.7307C35.392 19.5147 35.9004 21.9021 36.0941 23.1398C32.5436 19.4245 27.9635 17.073 27.9007 17.0333C27.671 17.1761 25.7328 17.5446 24.3252 20.2805L24.258 20.4113V22.4206C24.1976 22.4213 24.0201 22.4231 24.0806 22.4225C23.1862 18.1046 24.8989 14.6745 29.7023 13.6677ZM23.9534 23.6694L24.258 24.9035V26.2005L23.7518 24.1515C23.6775 23.8461 23.9037 23.7303 23.9534 23.6694ZM23.066 35.9371L30.6128 45.3758L35.7189 38.9895C36.2744 39.4866 36.5414 39.5571 37.7191 40.1627L37.3219 38.8153C37.2211 38.4732 37.6201 37.9246 37.8611 37.6725C38.3991 37.3806 38.8475 36.9644 39.183 36.4506L43.349 38.5425L39.4723 47.4177V49.9863H21.7527V47.4174L17.8743 38.5434L23.066 35.9371ZM16.9007 39.3311L20.5458 47.6719V49.9863H15.0355C15.0078 48.1454 15.0761 42.3623 16.9007 39.3311Z" fill="#FF6B09"/>
</g>
<path fill-rule="evenodd" clip-rule="evenodd" d="M0 0.5H60.8235V9.73529H58.8235V2.5H2V60.5H58.8235V53.2647H60.8235V62.5H0V0.5Z" fill="#FF6B09"/>
<defs>
<clipPath id="clip0">
<rect width="33.1915" height="40" fill="white" transform="translate(14 11.5)"/>
</clipPath>
</defs>
</svg>
