<svg width="40" height="48" fill="none" xmlns="http://www.w3.org/2000/svg"><g clip-path="url(#clip0)"><path d="M-.153 47.638h40.177c.198-4.582-.13-12.184-2.947-15.802l-.102-.13-6.155-3.09c.133-.451.2-.864.226-1.168.03-.364-.02-.707-.15-1.017-1.016-2.43-3.165-3.708-4.347-4.253.36-.726.593-1.505.705-2.301a1.975 1.975 0 001.384-1.426l.718-2.92a1.975 1.975 0 00-.226-1.503 1.969 1.969 0 00-.441-.501c2.026-4.602-1.367-8.94-1.552-9.17-3.675-3.972-8.317-3.23-8.562-3.185-6.7 1.403-9.285 6.537-7.825 12.558a1.977 1.977 0 00-.454 1.8l.722 2.923c.175.702.71 1.23 1.374 1.421a7.52 7.52 0 001.728 3.84v2.314c-9.613 4.923-3.522 1.782-11.226 5.68-.015.072-3.615 3.898-3.08 15.237l.033.693zm38.78-1.454h-6.612v-2.778l4.373-10.012c2.191 3.637 2.273 10.58 2.24 12.79zm-9.024-18.86c-.255 2.932-1.863 2.046-2.855 4.304-.78-.858-1.015-1.887-.806-2.989.38-2.023-.855-2.623-.55-4.749l.046-.048v-.007c.026-.03.27-.32.34-.411 2.617 1.14 3.876 3.261 3.825 3.9zm-14.035-2.303a7.449 7.449 0 008.362.112c.168 1.67.821 2.005.59 3.235a5.389 5.389 0 00-.081.674l-4.504 5.075-5.756-6.49 1.39-.725v-1.881zm-1.81-6.212v-2.814-4.944c.7-1.296 1.656-2.236 2.844-2.8 3.18 1.8 6.84 4.485 9.295 7.188-.002 3.441.01 3.45-.013 3.733l-.002.018c-.191 3.126-2.76 5.716-6.056 5.716-3.204 0-5.864-2.515-6.056-5.747a4.102 4.102 0 01-.012-.35zm-.897 9.52l7.074 7.975 4.75-5.353c.108.313.26.608.435.894l-5.185 6.483-7.73-9.669.656-.33zm14.485-10.69v-2.247l.54-.62c.03 1.139.152-.204-.54 2.867zM18.843 2.6c.287.018 4.148-.587 7.198 2.707.12.15 2.604 3.35 1.606 6.851-.341-1.558-.936-3.554-1.877-4.506l-1.028 1.024c.928.94 1.538 3.806 1.77 5.29-4.26-4.458-9.756-7.28-9.831-7.327-.276.171-2.602.613-4.29 3.897l-.081.156v2.412l-.213.002c-1.074-5.182.982-9.298 6.746-10.506zm-6.899 12.002l.366 1.481v1.557l-.608-2.46c-.089-.366.182-.505.242-.578zM10.88 29.325l9.056 11.326 6.128-7.664c.666.597.987.681 2.4 1.408l-.477-1.617c-.12-.41.358-1.069.647-1.371a4.381 4.381 0 001.587-1.466l4.999 2.51-4.652 10.65v3.083H9.303V43.1L4.65 32.452l6.23-3.127zm-7.398 4.072l4.374 10.01v2.777H1.243c-.034-2.21.048-9.15 2.238-12.787z" fill="#FF6B09"/></g><defs><clipPath id="clip0"><path fill="#fff" d="M0 0h39.83v48H0z"/></clipPath></defs></svg>