<svg width="61" height="63" viewBox="0 0 61 63" fill="none" xmlns="http://www.w3.org/2000/svg">
<g clip-path="url(#clip0)">
<path d="M48.6619 10.3359H28.4873C27.174 10.3359 26.1056 11.4043 26.1056 12.7176V21.0687L11.1177 27.3595C10.948 27.4307 10.8326 27.5909 10.8196 27.7745C10.8066 27.9582 10.8974 28.1336 11.0554 28.2283L12.9668 29.3723V41.5632C11.9893 41.786 11.2559 42.6608 11.2559 43.7075V44.8827C11.2559 45.1521 11.4745 45.3708 11.744 45.3708H15.1667C15.4362 45.3708 15.6548 45.1521 15.6548 44.8827V43.7075C15.6548 42.6622 14.9212 41.7886 13.943 41.5643V29.9566L15.4543 30.8611C15.4078 31.2096 15.4484 30.2537 15.4327 36.5367C15.4327 38.6021 20.7229 39.7085 26.1056 39.7719V49.2857C26.1056 49.7771 26.2561 50.2341 26.5134 50.6135C26.9414 51.2466 27.6659 51.6639 28.486 51.6639H48.6606C49.9727 51.6639 51.0401 50.5962 51.0401 49.2844C51.0401 49.3496 51.0374 47.2691 51.0401 12.7179C51.0401 11.4224 49.9689 10.3359 48.6619 10.3359ZM14.6786 43.7075V44.3946H12.2321V43.7075C12.2321 43.0313 12.7796 42.4809 13.4523 42.4809C14.1285 42.4809 14.6786 43.0313 14.6786 43.7075ZM48.6619 50.6851H28.4873C28.0032 50.6851 27.5756 50.4401 27.3227 50.0682C27.1713 49.8442 27.0828 49.5744 27.0828 49.2844V45.9866H50.0614V49.2857C50.0614 50.0502 49.4243 50.6851 48.6619 50.6851ZM50.0614 45.0104H27.0818V39.7748C29.7099 39.7447 37.7611 39.1659 37.7611 36.5367C37.7582 32.5897 37.7681 30.9892 37.7487 30.8537L42.1317 28.2283C42.2897 28.1336 42.3805 27.9582 42.3675 27.7745C42.3545 27.5909 42.2391 27.4307 42.0695 27.3595L27.0818 21.0686V16.992H50.0614V45.0104ZM26.5937 33.2961C23.8863 33.2961 18.6735 33.6458 16.4089 35.1246C16.4232 30.6014 16.2519 30.896 16.8089 30.5124C18.2157 29.4765 22.2393 28.7533 26.5937 28.7533C28.4929 28.7533 36.7849 29.2754 36.7849 31.031V35.1252C34.4991 33.6327 29.3127 33.2961 26.5937 33.2961ZM27.0828 12.7179C27.0828 11.9442 27.7123 11.3147 28.486 11.3147H48.6606C49.4351 11.3147 50.0614 11.953 50.0614 12.7176V16.0158H27.0828V12.7179ZM26.5937 21.9225L40.8028 27.8864L37.282 29.9933C35.4102 28.137 29.2184 27.7771 26.5937 27.7771C23.9656 27.7771 17.7733 28.1382 15.9055 29.9938L12.3837 27.8864L26.5937 21.9225ZM16.4089 36.5367C16.4089 35.7468 19.9069 34.2723 26.5937 34.2723C33.2847 34.2723 36.7849 35.7468 36.7849 36.5367C36.7849 37.3273 33.2847 38.8018 26.5937 38.8018C19.9069 38.8018 16.4089 37.3273 16.4089 36.5367Z" fill="#FF6B09"/>
<path d="M38.5733 46.7227C37.6832 46.7227 36.959 47.4465 36.959 48.3369C36.959 49.2273 37.6832 49.9518 38.5733 49.9518C39.4637 49.9518 40.1879 49.2273 40.1879 48.3369C40.1879 47.4465 39.4637 46.7227 38.5733 46.7227ZM38.5733 48.9756C38.2215 48.9756 37.9352 48.689 37.9352 48.3369C37.9352 47.9848 38.2215 47.6988 38.5733 47.6988C38.9253 47.6988 39.2117 47.9848 39.2117 48.3369C39.2117 48.689 38.9253 48.9756 38.5733 48.9756Z" fill="#FF6B09"/>
<path d="M40.4355 13.177H36.7119V14.1532H40.4355V13.177Z" fill="#FF6B09"/>
</g>
<path d="M59.8235 9.73529V1.5H1V61.5H59.8235V53.2647" stroke="#FF6B09" stroke-width="2"/>
<defs>
<clipPath id="clip0">
<rect width="41.8723" height="41" fill="white" transform="translate(10 10.5)"/>
</clipPath>
</defs>
</svg>
