<svg aria-hidden="true" style="position: absolute; width: 0; height: 0; overflow: hidden;" version="1.1" xmlns="http://www.w3.org/2000/svg" xmlns:xlink="http://www.w3.org/1999/xlink">
<defs>
<symbol id="icon-person2" viewBox="0 0 33 32">
<path fill="#ff6b09" style="fill: var(--color1, #ff6b09)" d="M30.175-0.128h-15.746c-1.026 0.001-1.858 0.833-1.859 1.859v6.519l-11.698 4.909c-0.139 0.059-0.235 0.194-0.235 0.352 0 0.138 0.074 0.26 0.184 0.326l0.002 0.001 1.492 0.893v9.516c-0.77 0.181-1.334 0.861-1.335 1.673v0.917c0 0.211 0.17 0.381 0.381 0.381h2.671c0.211 0 0.381-0.171 0.381-0.381v0-0.917c0-0.816-0.573-1.498-1.337-1.673v-9.060l1.18 0.706c-0.036 0.272-0.005-0.474-0.017 4.43 0 1.612 4.129 2.476 8.33 2.525v7.425c0 1.025 0.832 1.856 1.857 1.856 0 0 0.001 0 0.001 0h15.746c1.025-0.001 1.856-0.832 1.857-1.857v-0c0 0.051-0.002-1.573 0-28.539 0-1.012-0.836-1.859-1.856-1.859zM3.652 25.918v0.537h-1.91v-0.537c0-0.528 0.428-0.957 0.953-0.957 0.528 0 0.957 0.43 0.957 0.957zM30.175 31.364h-15.746c-0.378 0-0.711-0.191-0.909-0.481-0.117-0.171-0.187-0.383-0.187-0.61 0-0.001 0-0.001 0-0.002v0-2.574h17.934v2.575c0 0.596-0.497 1.092-1.092 1.092zM31.267 26.935h-17.935v-4.086c2.051-0.023 8.335-0.475 8.335-2.527-0.002-3.080 0.005-4.33-0.010-4.436l3.421-2.049c0.111-0.068 0.184-0.189 0.184-0.326 0-0.157-0.095-0.292-0.23-0.35l-0.002-0.001-11.698-4.91v-3.182h17.935v21.868zM12.951 17.792c-2.113 0-6.181 0.273-7.949 1.427 0.012-3.53-0.123-3.3 0.313-3.6 1.098-0.808 4.238-1.373 7.636-1.373 1.483 0 7.954 0.407 7.954 1.777v3.196c-1.784-1.165-5.832-1.428-7.954-1.428zM13.333 1.731c0.001-0.604 0.491-1.094 1.095-1.094h15.746c0.604 0 1.093 0.498 1.093 1.095v2.574h-17.934v-2.574zM12.952 8.915l11.090 4.655-2.748 1.644c-1.461-1.449-6.294-1.729-8.342-1.729-2.051 0-6.883 0.281-8.342 1.729l-2.749-1.644 11.091-4.655zM5.002 20.321c0-0.616 2.73-1.768 7.949-1.768 5.222 0 7.954 1.151 7.954 1.767s-2.732 1.768-7.954 1.768c-5.219 0-7.949-1.151-7.949-1.768z"></path>
<path fill="#ff6b09" style="fill: var(--color1, #ff6b09)" d="M22.301 28.271c-0.694 0-1.26 0.565-1.26 1.26 0 0.696 0.565 1.261 1.26 1.261s1.26-0.565 1.26-1.26c0-0.694-0.565-1.26-1.26-1.26zM22.301 30.030c-0.264-0.014-0.473-0.232-0.473-0.498s0.209-0.484 0.472-0.498l0.001-0c0.275 0 0.498 0.223 0.498 0.498s-0.223 0.498-0.498 0.498v0zM23.755 2.090h-2.907v0.761h2.907v-0.761z"></path>
</symbol>
<symbol id="icon-study2" viewBox="0 0 27 32">
<path fill="#ff6b09" style="fill: var(--color1, #ff6b09)" d="M-0.102 31.759h26.785c0.132-3.055-0.087-8.123-1.965-10.535l-0.068-0.087-4.103-2.060c0.089-0.301 0.133-0.576 0.151-0.779 0.020-0.243-0.013-0.471-0.1-0.678-0.677-1.62-2.11-2.472-2.898-2.835 0.24-0.484 0.395-1.003 0.47-1.534 0.456-0.131 0.805-0.489 0.921-0.942l0.002-0.009 0.479-1.947c0.025-0.096 0.040-0.207 0.040-0.32 0-0.252-0.071-0.487-0.194-0.687l0.003 0.006c-0.081-0.13-0.178-0.24-0.292-0.332l-0.002-0.002c1.351-3.068-0.911-5.96-1.035-6.113-2.45-2.648-5.545-2.153-5.708-2.123-4.467 0.935-6.19 4.358-5.217 8.372-0.212 0.233-0.341 0.544-0.341 0.885 0 0.112 0.014 0.221 0.040 0.325l-0.002-0.009 0.481 1.949c0.117 0.468 0.473 0.82 0.916 0.947 0.142 0.989 0.554 1.863 1.158 2.567l-0.006-0.007v1.543c-6.409 3.282-2.348 1.188-7.484 3.787-0.010 0.048-2.41 2.599-2.053 10.158l0.022 0.462zM25.751 30.789h-4.408v-1.852l2.915-6.675c1.461 2.425 1.515 7.053 1.493 8.527zM19.735 18.216c-0.17 1.955-1.242 1.364-1.903 2.869-0.52-0.572-0.677-1.258-0.537-1.993 0.253-1.349-0.57-1.749-0.367-3.166l0.031-0.032v-0.005c0.017-0.020 0.18-0.213 0.227-0.274 1.745 0.76 2.584 2.174 2.55 2.6zM10.379 16.681c0.793 0.559 1.778 0.894 2.842 0.894 1.017 0 1.963-0.306 2.75-0.831l-0.018 0.011c0.112 1.113 0.547 1.337 0.393 2.157-0.025 0.128-0.044 0.283-0.054 0.44l-0 0.010-3.003 3.383-3.837-4.327 0.927-0.483v-1.254zM9.172 12.539v-5.172c0.467-0.864 1.104-1.491 1.896-1.867 2.12 1.2 4.56 2.99 6.197 4.792-0.001 2.294 0.007 2.3-0.009 2.489l-0.001 0.012c-0.127 2.084-1.84 3.811-4.037 3.811-2.136 0-3.909-1.677-4.037-3.831-0.005-0.063-0.008-0.136-0.008-0.21 0-0.008 0-0.016 0-0.024v0.001zM8.574 18.886l4.716 5.317 3.167-3.569c0.072 0.209 0.173 0.405 0.29 0.596l-3.457 4.322-5.153-6.446 0.437-0.22zM18.231 11.759v-1.498l0.36-0.413c0.020 0.759 0.101-0.136-0.36 1.911zM12.562 1.733c0.191 0.012 2.765-0.391 4.799 1.805 0.080 0.1 1.736 2.233 1.071 4.567-0.227-1.039-0.624-2.369-1.251-3.004l-0.685 0.683c0.619 0.627 1.025 2.537 1.18 3.527-2.84-2.972-6.504-4.853-6.554-4.885-0.184 0.114-1.735 0.409-2.86 2.598l-0.054 0.104v1.608l-0.142 0.001c-0.716-3.455 0.655-6.199 4.497-7.004zM7.963 9.735l0.244 0.987v1.038l-0.405-1.64c-0.059-0.244 0.121-0.337 0.161-0.385zM7.253 19.55l6.037 7.551 4.085-5.109c0.444 0.398 0.658 0.454 1.6 0.939l-0.318-1.078c-0.080-0.273 0.239-0.713 0.431-0.914 0.434-0.238 0.79-0.568 1.051-0.966l0.007-0.011 3.333 1.673-3.101 7.1v2.055h-14.177v-2.056l-3.102-7.099 4.153-2.085zM2.321 22.265l2.916 6.673v1.851h-4.409c-0.023-1.473 0.032-6.1 1.492-8.525z"></path>
</symbol>
</defs>
</svg>
